grf
version=1
nRows=9
nColumns=37
inDegrees=no
endheader
time	ground_force_1_vx	ground_force_1_vy	ground_force_1_vz	ground_force_1_px	ground_force_1_py	ground_force_1_pz	ground_moment_1_mx	ground_moment_1_my	ground_moment_1_mz	ground_force_2_vx	ground_force_2_vy	ground_force_2_vz	ground_force_2_px	ground_force_2_py	ground_force_2_pz	ground_moment_2_mx	ground_moment_2_my	ground_moment_2_mz	ground_force_3_vx	ground_force_3_vy	ground_force_3_vz	ground_force_3_px	ground_force_3_py	ground_force_3_pz	ground_moment_3_mx	ground_moment_3_my	ground_moment_3_mz	ground_force_4_vx	ground_force_4_vy	ground_force_4_vz	ground_force_4_px	ground_force_4_py	ground_force_4_pz	ground_moment_4_mx	ground_moment_4_my	ground_moment_4_mz
      1.89000000	      0.00000000	     -0.00000000	      0.00000000	      0.00000000	      0.00000000	      0.00000000	      0.00000000	      0.00000000	      0.00000000	      6.07018900	     13.64856434	   -338.36172485	   -384.79156075	  -1061.97744014	      0.00000000	      0.00000000	      0.00000000	   2509.33461007	      3.45971932	    -14.73837406	   -374.36529541	   -389.19853561	   -694.67117182	      0.00000000	      0.00000000	     -0.00000000	  -3646.89045741	      0.00000000	     -0.00000000	      0.00000000	      0.00000000	      0.00000000	      0.00000000	      0.00000000	      0.00000000	      0.00000000
      1.90000000	      0.00000000	     -0.00000000	      0.00000000	      0.00000000	      0.00000000	      0.00000000	      0.00000000	      0.00000000	      0.00000000	      5.09684658	     14.07865810	   -341.36868286	   -381.14657210	  -1064.24924787	      0.00000000	      0.00000000	     -0.00000000	   2328.16481867	      3.36326113	    -14.73815184	   -377.72106934	   -387.19918395	   -694.40365835	      0.00000000	      0.00000000	     -0.00000000	  -3858.67804434	      0.00000000	     -0.00000000	      0.00000000	      0.00000000	      0.00000000	      0.00000000	      0.00000000	      0.00000000	      0.00000000
      1.91000000	      0.00000000	     -0.00000000	      0.00000000	      0.00000000	      0.00000000	      0.00000000	      0.00000000	      0.00000000	      0.00000000	      4.79331350	     14.69850540	   -342.21551514	   -379.60502378	  -1065.04879916	      0.00000000	      0.00000000	      0.00000000	   2941.12886226	      2.56867858	    -14.05489563	   -378.17767334	   -387.04925899	   -695.20042240	      0.00000000	      0.00000000	     -0.00000000	  -3842.54308711	      0.00000000	     -0.00000000	      0.00000000	      0.00000000	      0.00000000	      0.00000000	      0.00000000	      0.00000000	      0.00000000
      1.92000000	      0.00000000	     -0.00000000	      0.00000000	      0.00000000	      0.00000000	      0.00000000	      0.00000000	      0.00000000	      0.00000000	      3.54799843	     15.15624905	   -343.98107910	   -379.00797369	  -1063.76413405	      0.00000000	      0.00000000	      0.00000000	   2727.77883110	      2.21776839	    -14.13546009	   -383.05090332	   -385.11233247	   -694.32581388	      0.00000000	      0.00000000	     -0.00000000	  -3916.46883441	      0.00000000	     -0.00000000	      0.00000000	      0.00000000	      0.00000000	      0.00000000	      0.00000000	      0.00000000	      0.00000000
      1.93000000	      0.00000000	     -0.00000000	      0.00000000	      0.00000000	      0.00000000	      0.00000000	      0.00000000	      0.00000000	      0.00000000	      2.94394684	     15.42370415	   -350.27236938	   -377.67515043	  -1065.79440185	      0.00000000	      0.00000000	      0.00000000	   2811.09761391	      1.60493581	    -14.48881068	   -384.76507568	   -385.09525961	   -694.49934670	      0.00000000	      0.00000000	     -0.00000000	  -4142.50966798	      0.00000000	     -0.00000000	      0.00000000	      0.00000000	      0.00000000	      0.00000000	      0.00000000	      0.00000000	      0.00000000
      1.94000000	      0.00000000	     -0.00000000	      0.00000000	      0.00000000	      0.00000000	      0.00000000	      0.00000000	      0.00000000	      0.00000000	      3.04158139	     15.78028965	   -350.72436523	   -377.23774248	  -1064.57372959	      0.00000000	      0.00000000	      0.00000000	   2890.21795299	      1.60506262	    -14.83804335	   -385.91021729	   -384.25318377	   -693.22068843	      0.00000000	      0.00000000	     -0.00000000	  -4103.89693579	      0.00000000	     -0.00000000	      0.00000000	      0.00000000	      0.00000000	      0.00000000	      0.00000000	      0.00000000	      0.00000000
      1.95000000	      0.00000000	     -0.00000000	      0.00000000	      0.00000000	      0.00000000	      0.00000000	      0.00000000	      0.00000000	      0.00000000	      3.98874855	     15.19072056	   -351.43103027	   -376.89899591	  -1065.90523088	      0.00000000	      0.00000000	      0.00000000	   3018.45385278	      2.28963961	    -14.76229592	   -385.69656372	   -383.57746077	   -692.45641614	      0.00000000	      0.00000000	     -0.00000000	  -4018.67276935	      0.00000000	     -0.00000000	      0.00000000	      0.00000000	      0.00000000	      0.00000000	      0.00000000	      0.00000000	      0.00000000
      1.96000000	      0.00000000	     -0.00000000	      0.00000000	      0.00000000	      0.00000000	      0.00000000	      0.00000000	      0.00000000	      0.00000000	      3.85345697	     14.97390747	   -350.94027710	   -376.38358411	  -1066.79826413	      0.00000000	      0.00000000	      0.00000000	   2750.07100483	      1.89711272	    -15.08598916	   -381.60592651	   -381.68800595	   -691.47011501	      0.00000000	     -0.00000000	     -0.00000000	  -3981.34103399	      0.00000000	     -0.00000000	      0.00000000	      0.00000000	      0.00000000	      0.00000000	      0.00000000	      0.00000000	      0.00000000
      1.97000000	      0.00000000	     -0.00000000	      0.00000000	      0.00000000	      0.00000000	      0.00000000	      0.00000000	      0.00000000	      0.00000000	      4.58600283	     14.42149258	   -347.54650879	   -375.31196399	  -1066.81636198	      0.00000000	      0.00000000	      0.00000000	   2899.93371360	      1.96030355	    -14.94793909	   -375.28683472	   -381.02892290	   -691.31630769	      0.00000000	      0.00000000	     -0.00000000	  -3829.72784710	      0.00000000	     -0.00000000	      0.00000000	      0.00000000	      0.00000000	      0.00000000	      0.00000000	      0.00000000	      0.00000000
